<svg width="232" height="92" viewBox="0 0 232 92" fill="none" xmlns="http://www.w3.org/2000/svg">
<rect width="232" height="92" fill="black"/>
<rect x="4.5" y="4.5" width="223" height="83" fill="black" stroke="#DCC8B0"/>
<path d="M66.2007 21.6H72.7947L75.7347 42.642H75.8187L78.7587 21.6H85.3527V51H80.9847V28.74H80.9007L77.5407 51H73.6767L70.3167 28.74H70.2327V51H66.2007V21.6ZM93.6303 21.6H106.23V25.8H98.2503V33.57H104.592V37.77H98.2503V46.8H106.23V51H93.6303V21.6ZM113.718 21.6H118.338V33.57H123.294V21.6H127.914V51H123.294V37.77H118.338V51H113.718V21.6ZM139.797 25.8H134.967V21.6H149.247V25.8H144.417V51H139.797V25.8ZM157.956 21.6H164.214L169.002 51H164.382L163.542 45.162V45.246H158.292L157.452 51H153.168L157.956 21.6ZM162.996 41.256L160.938 26.724H160.854L158.838 41.256H162.996Z" fill="#ECECEC"/>
<path d="M50.5031 70.168C53.0091 70.168 54.2411 68.88 54.2411 67.172C54.2411 63.686 48.8791 64.68 48.8791 63.21C48.8791 62.65 49.3551 62.286 50.1951 62.286C51.1471 62.286 52.1551 62.608 52.9111 63.308L54.0171 61.824C53.0931 60.97 51.8611 60.522 50.3771 60.522C48.1791 60.522 46.8351 61.81 46.8351 63.364C46.8351 66.878 52.2111 65.744 52.2111 67.368C52.2111 67.914 51.6931 68.404 50.5871 68.404C49.2991 68.404 48.2771 67.816 47.6191 67.13L46.5271 68.684C47.4091 69.566 48.6971 70.168 50.5031 70.168ZM57.5536 70V66.668H59.9336C61.9496 66.668 63.0696 65.296 63.0696 63.672C63.0696 62.034 61.9636 60.662 59.9336 60.662H55.5656V70H57.5536ZM59.6536 64.918H57.5536V62.412H59.6536C60.4376 62.412 61.0396 62.888 61.0396 63.672C61.0396 64.442 60.4376 64.918 59.6536 64.918ZM68.7536 70.168C71.5676 70.168 73.6256 68.152 73.6256 65.338C73.6256 62.524 71.5676 60.508 68.7536 60.508C65.9256 60.508 63.8676 62.524 63.8676 65.338C63.8676 68.152 65.9256 70.168 68.7536 70.168ZM68.7536 68.404C67.0176 68.404 65.9116 67.074 65.9116 65.338C65.9116 63.588 67.0176 62.272 68.7536 62.272C70.4756 62.272 71.5816 63.588 71.5816 65.338C71.5816 67.074 70.4756 68.404 68.7536 68.404ZM82.5947 70L80.4807 66.444C81.4887 66.206 82.5387 65.31 82.5387 63.672C82.5387 61.936 81.3347 60.662 79.3887 60.662H75.0207V70H77.0087V66.682H78.4647L80.2987 70H82.5947ZM79.1087 64.932H77.0087V62.412H79.1087C79.8927 62.412 80.4947 62.888 80.4947 63.658C80.4947 64.456 79.8927 64.932 79.1087 64.932ZM88.0381 70V62.412H90.7541V60.662H83.3061V62.412H86.0361V70H88.0381ZM95.2648 70.168C97.7708 70.168 99.0028 68.88 99.0028 67.172C99.0028 63.686 93.6408 64.68 93.6408 63.21C93.6408 62.65 94.1168 62.286 94.9568 62.286C95.9088 62.286 96.9168 62.608 97.6728 63.308L98.7788 61.824C97.8548 60.97 96.6228 60.522 95.1388 60.522C92.9408 60.522 91.5968 61.81 91.5968 63.364C91.5968 66.878 96.9728 65.744 96.9728 67.368C96.9728 67.914 96.4548 68.404 95.3488 68.404C94.0608 68.404 93.0388 67.816 92.3808 67.13L91.2888 68.684C92.1708 69.566 93.4588 70.168 95.2648 70.168ZM105.911 70V66.668H108.291C110.307 66.668 111.427 65.296 111.427 63.672C111.427 62.034 110.321 60.662 108.291 60.662H103.923V70H105.911ZM108.011 64.918H105.911V62.412H108.011C108.795 62.412 109.397 62.888 109.397 63.672C109.397 64.442 108.795 64.918 108.011 64.918ZM116.005 70.168C118.511 70.168 119.743 68.88 119.743 67.172C119.743 63.686 114.381 64.68 114.381 63.21C114.381 62.65 114.857 62.286 115.697 62.286C116.649 62.286 117.657 62.608 118.413 63.308L119.519 61.824C118.595 60.97 117.363 60.522 115.879 60.522C113.681 60.522 112.337 61.81 112.337 63.364C112.337 66.878 117.713 65.744 117.713 67.368C117.713 67.914 117.195 68.404 116.089 68.404C114.801 68.404 113.779 67.816 113.121 67.13L112.029 68.684C112.911 69.566 114.199 70.168 116.005 70.168ZM125.523 70V66.178L129.093 60.662H126.839L124.529 64.4L122.219 60.662H119.951L123.535 66.178V70H125.523ZM133.93 70.168C135.974 70.168 137.164 69.034 137.822 67.872L136.114 67.046C135.722 67.802 134.882 68.404 133.93 68.404C132.222 68.404 130.99 67.102 130.99 65.338C130.99 63.574 132.222 62.272 133.93 62.272C134.882 62.272 135.722 62.874 136.114 63.63L137.822 62.79C137.164 61.614 135.974 60.508 133.93 60.508C131.116 60.508 128.946 62.454 128.946 65.338C128.946 68.208 131.116 70.168 133.93 70.168ZM147.405 70V60.662H145.403V64.33H140.993V60.662H139.005V70H140.993V66.066H145.403V70H147.405ZM151.233 70V60.662H149.245V70H151.233ZM161.795 70L158.197 60.662H155.705L152.107 70H154.361L154.949 68.418H158.953L159.541 70H161.795ZM158.407 66.668H155.495L156.951 62.65L158.407 66.668ZM165.913 70V62.412H168.629V60.662H161.181V62.412H163.911V70H165.913ZM177.477 70L175.363 66.444C176.371 66.206 177.421 65.31 177.421 63.672C177.421 61.936 176.217 60.662 174.271 60.662H169.903V70H171.891V66.682H173.347L175.181 70H177.477ZM173.991 64.932H171.891V62.412H173.991C174.775 62.412 175.377 62.888 175.377 63.658C175.377 64.456 174.775 64.932 173.991 64.932ZM183.245 70V66.178L186.815 60.662H184.561L182.251 64.4L179.941 60.662H177.673L181.257 66.178V70H183.245Z" fill="white"/>
</svg>
