<svg width="141" height="60" viewBox="0 0 141 60" fill="none" xmlns="http://www.w3.org/2000/svg">
<path d="M20.2007 8.6H26.7947L29.7347 29.642H29.8187L32.7587 8.6H39.3527V38H34.9847V15.74H34.9007L31.5407 38H27.6767L24.3167 15.74H24.2327V38H20.2007V8.6ZM47.6303 8.6H60.2303V12.8H52.2503V20.57H58.5923V24.77H52.2503V33.8H60.2303V38H47.6303V8.6ZM67.7181 8.6H72.3381V20.57H77.2941V8.6H81.9141V38H77.2941V24.77H72.3381V38H67.7181V8.6ZM93.7968 12.8H88.9668V8.6H103.247V12.8H98.4168V38H93.7968V12.8ZM111.956 8.6H118.214L123.002 38H118.382L117.542 32.162V32.246H112.292L111.452 38H107.168L111.956 8.6ZM116.996 28.256L114.938 13.724H114.854L112.838 28.256H116.996Z" fill="#ECECEC"/>
<path d="M4.50307 57.168C7.00907 57.168 8.24107 55.88 8.24107 54.172C8.24107 50.686 2.87907 51.68 2.87907 50.21C2.87907 49.65 3.35507 49.286 4.19507 49.286C5.14707 49.286 6.15507 49.608 6.91107 50.308L8.01707 48.824C7.09307 47.97 5.86107 47.522 4.37707 47.522C2.17907 47.522 0.83507 48.81 0.83507 50.364C0.83507 53.878 6.21107 52.744 6.21107 54.368C6.21107 54.914 5.69307 55.404 4.58707 55.404C3.29907 55.404 2.27707 54.816 1.61907 54.13L0.52707 55.684C1.40907 56.566 2.69707 57.168 4.50307 57.168ZM11.5536 57V53.668H13.9336C15.9496 53.668 17.0696 52.296 17.0696 50.672C17.0696 49.034 15.9636 47.662 13.9336 47.662H9.5656V57H11.5536ZM13.6536 51.918H11.5536V49.412H13.6536C14.4376 49.412 15.0396 49.888 15.0396 50.672C15.0396 51.442 14.4376 51.918 13.6536 51.918ZM22.7536 57.168C25.5676 57.168 27.6256 55.152 27.6256 52.338C27.6256 49.524 25.5676 47.508 22.7536 47.508C19.9256 47.508 17.8676 49.524 17.8676 52.338C17.8676 55.152 19.9256 57.168 22.7536 57.168ZM22.7536 55.404C21.0176 55.404 19.9116 54.074 19.9116 52.338C19.9116 50.588 21.0176 49.272 22.7536 49.272C24.4756 49.272 25.5816 50.588 25.5816 52.338C25.5816 54.074 24.4756 55.404 22.7536 55.404ZM36.5947 57L34.4807 53.444C35.4887 53.206 36.5387 52.31 36.5387 50.672C36.5387 48.936 35.3347 47.662 33.3887 47.662H29.0207V57H31.0087V53.682H32.4647L34.2987 57H36.5947ZM33.1087 51.932H31.0087V49.412H33.1087C33.8927 49.412 34.4947 49.888 34.4947 50.658C34.4947 51.456 33.8927 51.932 33.1087 51.932ZM42.0381 57V49.412H44.7541V47.662H37.3061V49.412H40.0361V57H42.0381ZM49.2648 57.168C51.7708 57.168 53.0028 55.88 53.0028 54.172C53.0028 50.686 47.6408 51.68 47.6408 50.21C47.6408 49.65 48.1168 49.286 48.9568 49.286C49.9088 49.286 50.9168 49.608 51.6728 50.308L52.7788 48.824C51.8548 47.97 50.6228 47.522 49.1388 47.522C46.9408 47.522 45.5968 48.81 45.5968 50.364C45.5968 53.878 50.9728 52.744 50.9728 54.368C50.9728 54.914 50.4548 55.404 49.3488 55.404C48.0608 55.404 47.0388 54.816 46.3808 54.13L45.2888 55.684C46.1708 56.566 47.4588 57.168 49.2648 57.168ZM59.911 57V53.668H62.291C64.307 53.668 65.427 52.296 65.427 50.672C65.427 49.034 64.321 47.662 62.291 47.662H57.923V57H59.911ZM62.011 51.918H59.911V49.412H62.011C62.795 49.412 63.397 49.888 63.397 50.672C63.397 51.442 62.795 51.918 62.011 51.918ZM70.005 57.168C72.511 57.168 73.743 55.88 73.743 54.172C73.743 50.686 68.381 51.68 68.381 50.21C68.381 49.65 68.857 49.286 69.697 49.286C70.649 49.286 71.657 49.608 72.413 50.308L73.519 48.824C72.595 47.97 71.363 47.522 69.879 47.522C67.681 47.522 66.337 48.81 66.337 50.364C66.337 53.878 71.713 52.744 71.713 54.368C71.713 54.914 71.195 55.404 70.089 55.404C68.801 55.404 67.779 54.816 67.121 54.13L66.029 55.684C66.911 56.566 68.199 57.168 70.005 57.168ZM79.5228 57V53.178L83.0928 47.662H80.8388L78.5288 51.4L76.2188 47.662H73.9508L77.5348 53.178V57H79.5228ZM87.9297 57.168C89.9737 57.168 91.1637 56.034 91.8217 54.872L90.1137 54.046C89.7217 54.802 88.8817 55.404 87.9297 55.404C86.2217 55.404 84.9897 54.102 84.9897 52.338C84.9897 50.574 86.2217 49.272 87.9297 49.272C88.8817 49.272 89.7217 49.874 90.1137 50.63L91.8217 49.79C91.1637 48.614 89.9737 47.508 87.9297 47.508C85.1157 47.508 82.9457 49.454 82.9457 52.338C82.9457 55.208 85.1157 57.168 87.9297 57.168ZM101.405 57V47.662H99.4031V51.33H94.9931V47.662H93.0051V57H94.9931V53.066H99.4031V57H101.405ZM105.233 57V47.662H103.245V57H105.233ZM115.795 57L112.197 47.662H109.705L106.107 57H108.361L108.949 55.418H112.953L113.541 57H115.795ZM112.407 53.668H109.495L110.951 49.65L112.407 53.668ZM119.913 57V49.412H122.629V47.662H115.181V49.412H117.911V57H119.913ZM131.477 57L129.363 53.444C130.371 53.206 131.421 52.31 131.421 50.672C131.421 48.936 130.217 47.662 128.271 47.662H123.903V57H125.891V53.682H127.347L129.181 57H131.477ZM127.991 51.932H125.891V49.412H127.991C128.775 49.412 129.377 49.888 129.377 50.658C129.377 51.456 128.775 51.932 127.991 51.932ZM137.245 57V53.178L140.815 47.662H138.561L136.251 51.4L133.941 47.662H131.673L135.257 53.178V57H137.245Z" fill="white"/>
</svg>
